<svg id="Layer_1" data-name="Layer 1" xmlns="http://www.w3.org/2000/svg" viewBox="0 0 923.08 303.86"><defs><style>.cls-1{fill:#ea4335;}.cls-2{fill:#fbbc05;}.cls-3{fill:#4285f4;}.cls-4{fill:#34a853;}</style></defs><path class="cls-1" d="M395,159.91c0,43.71-34.2,75.93-76.17,75.93s-76.17-32.22-76.17-75.93c0-44,34.2-75.93,76.17-75.93S395,115.88,395,159.91Zm-33.34,0c0-27.32-19.82-46-42.83-46S276,132.59,276,159.91c0,27,19.82,46,42.82,46S361.68,186.92,361.68,159.91Z"/><path class="cls-2" d="M559.34,159.91c0,43.71-34.2,75.93-76.17,75.93S407,203.62,407,159.91c0-44,34.2-75.93,76.17-75.93S559.34,115.88,559.34,159.91Zm-33.34,0c0-27.32-19.82-46-42.83-46s-42.82,18.69-42.82,46c0,27,19.82,46,42.82,46S526,186.92,526,159.91Z"/><path class="cls-3" d="M716.82,88.56V224.88c0,56.08-33.07,79-72.17,79-36.8,0-58.95-24.62-67.3-44.75l29-12.08c5.17,12.36,17.84,26.94,38.24,26.94,25,0,40.53-15.44,40.53-44.5V218.55H684c-7.46,9.21-21.84,17.25-40,17.25-38,0-72.74-33.07-72.74-75.62C571.26,117.32,606,84,644,84c18.11,0,32.49,8,40,17h1.16V88.6h31.67Zm-29.31,71.62c0-26.74-17.83-46.28-40.53-46.28-23,0-42.28,19.54-42.28,46.28,0,26.46,19.28,45.74,42.28,45.74C669.68,205.92,687.51,186.64,687.51,160.18Z"/><path class="cls-4" d="M769,8.66V231.18H736.5V8.66Z"/><path class="cls-1" d="M895.76,184.9l25.88,17.25c-8.35,12.36-28.48,33.65-63.26,33.65-43.14,0-75.35-33.34-75.35-75.93,0-45.15,32.48-75.93,71.61-75.93,39.41,0,58.68,31.36,65,48.3l3.46,8.63-101.51,42c7.78,15.23,19.86,23,36.81,23s28.75-8.36,37.38-21ZM816.1,157.58,884,129.4c-3.73-9.48-15-16.09-28.18-16.09C838.83,113.31,815.24,128.27,816.1,157.58Z"/><path class="cls-3" d="M119.58,140.15V107.94H228.13a106.75,106.75,0,0,1,1.61,19.44c0,24.17-6.6,54.06-27.9,75.35-20.71,21.57-47.17,33.07-82.23,33.07C54.64,235.8,0,182.88,0,117.9S54.64,0,119.61,0c36,0,61.55,14.1,80.79,32.49L177.67,55.22c-13.79-12.94-32.48-23-58.09-23C72.13,32.21,35,70.45,35,117.9s37.11,85.69,84.56,85.69c30.77,0,48.3-12.36,59.53-23.59,9.11-9.11,15.1-22.11,17.46-39.88Z"/></svg>